<svg width="120" height="154" viewBox="0 0 120 156" fill="none" xmlns="http://www.w3.org/2000/svg">
    <circle cx="60" cy="79" r="59" stroke="#5A5A5A" stroke-width="2" />
    <path
        d="M44.75 68.6663V66.208C44.75 62.2961 46.304 58.5443 49.0702 55.7782C51.8363 53.012 55.5881 51.458 59.5 51.458C63.4119 51.458 67.1637 53.012 69.9298 55.7782C72.696 58.5443 74.25 62.2961 74.25 66.208V68.6663H79.1667C79.8187 68.6663 80.4439 68.9253 80.905 69.3864C81.366 69.8474 81.625 70.4727 81.625 71.1247V100.625C81.625 101.277 81.366 101.902 80.905 102.363C80.4439 102.824 79.8187 103.083 79.1667 103.083H39.8333C39.1813 103.083 38.5561 102.824 38.095 102.363C37.634 101.902 37.375 101.277 37.375 100.625V71.1247C37.375 70.4727 37.634 69.8474 38.095 69.3864C38.5561 68.9253 39.1813 68.6663 39.8333 68.6663H44.75ZM76.7083 73.583H42.2917V98.1663H76.7083V73.583ZM57.0417 87.6742C56.1043 87.133 55.3718 86.2977 54.9576 85.2977C54.5434 84.2978 54.4707 83.1891 54.7509 82.1437C55.031 81.0982 55.6483 80.1744 56.5069 79.5156C57.3656 78.8567 58.4177 78.4995 59.5 78.4995C60.5823 78.4995 61.6344 78.8567 62.4931 79.5156C63.3517 80.1744 63.969 81.0982 64.2491 82.1437C64.5293 83.1891 64.4566 84.2978 64.0424 85.2977C63.6282 86.2977 62.8957 87.133 61.9583 87.6742V93.2497H57.0417V87.6742ZM49.6667 68.6663H69.3333V66.208C69.3333 63.6 68.2973 61.0989 66.4532 59.2548C64.6091 57.4107 62.108 56.3747 59.5 56.3747C56.892 56.3747 54.3909 57.4107 52.5468 59.2548C50.7027 61.0989 49.6667 63.6 49.6667 66.208V68.6663Z"
        fill="white" />
    <line x1="89.1483" y1="27.4759" x2="105.148" y2="1.4759" stroke="#5A5A5A" stroke-width="2" />
    <line x1="15.1483" y1="155.476" x2="31.1483" y2="129.476" stroke="#5A5A5A" stroke-width="2" />
</svg>