<svg width="120" height="154" viewBox="0 0 120 156" fill="none" xmlns="http://www.w3.org/2000/svg">
    <circle cx="60" cy="79" r="59" stroke="#5A5A5A" stroke-width="2" />
    <line x1="89.1483" y1="27.4759" x2="105.148" y2="1.4759" stroke="#5A5A5A" stroke-width="2" />
    <line x1="15.1483" y1="155.476" x2="31.1483" y2="129.476" stroke="#5A5A5A" stroke-width="2" />
    <path
        d="M59.5001 98.167C70.3167 98.167 79.1667 89.317 79.1667 78.5003C79.1667 67.6837 70.3167 58.8337 59.5001 58.8337C48.6834 58.8337 39.8334 67.6837 39.8334 78.5003C39.8334 89.317 48.6834 98.167 59.5001 98.167ZM59.5001 53.917C73.0209 53.917 84.0834 64.9795 84.0834 78.5003C84.0834 92.0212 73.0209 103.084 59.5001 103.084C45.9792 103.084 34.9167 92.0212 34.9167 78.5003C34.9167 64.9795 45.9792 53.917 59.5001 53.917ZM71.7917 77.2712V80.9587H57.0417V66.2087H60.7292V77.2712H71.7917Z"
        fill="white" />
</svg>