<svg width="120" height="154" viewBox="0 0 120 156" fill="none" xmlns="http://www.w3.org/2000/svg">
    <circle cx="60" cy="79" r="59" stroke="#5A5A5A" stroke-width="2" />
    <g clip-path="url(#clip0_26_963)">
        <path
            d="M60.5 62.1336L57.856 59.4159C51.65 53.0366 40.2703 55.238 36.1625 63.2583C34.3851 66.7319 33.8762 71.6289 36.5607 77.8129H32.5856C24.7386 56.8052 47.944 45.2522 59.851 56.2152C60.0722 56.418 60.2898 56.6282 60.5 56.8457C60.708 56.6284 60.9245 56.4193 61.149 56.2189C73.0596 45.2522 96.2613 56.8052 88.4143 77.8129H84.4392C87.1237 71.6289 86.6148 66.7319 84.8375 63.2583C80.7296 55.238 69.35 53.0329 63.1439 59.4122L60.5 62.1336ZM39.1567 88.8754H44.0058C47.9367 93.2377 53.3093 97.9392 60.5 102.869C67.6869 97.9392 73.0633 93.2377 76.9942 88.8754H81.8432C77.1785 94.65 70.2645 100.86 60.5 107.313C50.7355 100.86 43.8214 94.65 39.1567 88.8754Z"
            fill="white" />
        <path
            d="M69.586 64.2205C69.443 63.8635 69.1918 63.5601 68.8678 63.3529C68.5438 63.1457 68.1631 63.0451 67.7791 63.065C67.395 63.0849 67.0267 63.2244 66.7259 63.464C66.4251 63.7036 66.2067 64.0313 66.1013 64.4012L60.2087 85.0254L54.836 71.5955C54.7109 71.2839 54.5031 71.0125 54.235 70.8104C53.9669 70.6083 53.6487 70.4832 53.3147 70.4487C52.9808 70.4141 52.6437 70.4714 52.34 70.6144C52.0362 70.7574 51.7772 70.9806 51.591 71.2599L44.7618 81.5001H32.8438C32.3548 81.5001 31.8858 81.6944 31.54 82.0401C31.1943 82.3859 31 82.8549 31 83.3439C31 83.8328 31.1943 84.3018 31.54 84.6476C31.8858 84.9934 32.3548 85.1876 32.8438 85.1876H45.75C46.0536 85.1874 46.3525 85.1123 46.6201 84.9688C46.8877 84.8254 47.1158 84.6181 47.284 84.3653L52.7157 76.2196L58.789 91.4047C58.932 91.7617 59.1832 92.0651 59.5072 92.2723C59.8312 92.4795 60.2119 92.5801 60.5959 92.5602C60.98 92.5403 61.3483 92.4008 61.6491 92.1612C61.9499 91.9216 62.1683 91.5939 62.2737 91.224L68.1663 70.5999L73.539 84.0297C73.676 84.3715 73.9121 84.6645 74.2171 84.8708C74.522 85.0772 74.8818 85.1875 75.25 85.1876H88.1562C88.6452 85.1876 89.1142 84.9934 89.46 84.6476C89.8057 84.3018 90 83.8328 90 83.3439C90 82.8549 89.8057 82.3859 89.46 82.0401C89.1142 81.6944 88.6452 81.5001 88.1562 81.5001H76.4964L69.586 64.2205Z"
            fill="white" />
    </g>
    <line x1="89.1483" y1="27.4759" x2="105.148" y2="1.4759" stroke="#5A5A5A" stroke-width="2" />
    <line x1="15.1483" y1="155.476" x2="31.1483" y2="129.476" stroke="#5A5A5A" stroke-width="2" />
    <defs>
        <clipPath id="clip0_26_963">
            <rect width="59" height="59" fill="white" transform="translate(31 52)" />
        </clipPath>
    </defs>
</svg>