<svg width="20" height="20" viewBox="0 0 20 20" fill="none" xmlns="http://www.w3.org/2000/svg">
<path d="M10.0001 16.667C13.6667 16.667 16.6667 13.667 16.6667 10.0003C16.6667 6.33366 13.6667 3.33366 10.0001 3.33366C6.33341 3.33366 3.33341 6.33366 3.33341 10.0003C3.33341 13.667 6.33341 16.667 10.0001 16.667ZM10.0001 1.66699C14.5834 1.66699 18.3334 5.41699 18.3334 10.0003C18.3334 14.5837 14.5834 18.3337 10.0001 18.3337C5.41675 18.3337 1.66675 14.5837 1.66675 10.0003C1.66675 5.41699 5.41675 1.66699 10.0001 1.66699ZM14.1667 9.58366V10.8337H9.16675V5.83366H10.4167V9.58366H14.1667Z" fill="#717171"/>
</svg>
