<svg width="46" height="46" viewBox="0 0 46 46" fill="none" xmlns="http://www.w3.org/2000/svg">
<path d="M33.7333 14.5669H24.5333V8.43347H41.4C42.0098 8.43278 42.5944 8.19024 43.0256 7.75904C43.4568 7.32785 43.6993 6.74323 43.7 6.13343V0H40.6333V5.36675H23.7667C23.1569 5.36744 22.5723 5.60998 22.1411 6.04117C21.7099 6.47236 21.4674 7.05699 21.4667 7.66679V14.5669H12.2667C9.01447 14.5706 5.89653 15.8642 3.59689 18.1638C1.29724 20.4635 0.00367788 23.5815 0 26.8338V36.5086C0.00261257 38.8219 0.922726 41.0397 2.55848 42.6755C4.19423 44.3113 6.41204 45.2314 8.72534 45.234H8.89784C10.1773 45.2358 11.4415 44.9553 12.6002 44.4126C13.7589 43.87 14.7838 43.0785 15.6017 42.0945L20.6521 36.0339H25.3123L30.3594 42.5952C31.4705 44.0394 33.0058 45.0994 34.7499 45.6267C36.494 46.154 38.3594 46.122 40.0844 45.5352C41.8094 44.9485 43.3075 43.8364 44.3684 42.355C45.4293 40.8737 45.9999 39.0973 46 37.2752V26.8338C45.9963 23.5815 44.7028 20.4635 42.4031 18.1638C40.1035 15.8642 36.9855 14.5706 33.7333 14.5669ZM42.9333 37.2752C42.9333 38.457 42.5633 39.6091 41.8752 40.5699C41.1871 41.5307 40.2155 42.2519 39.0967 42.6325C37.9779 43.013 36.768 43.0337 35.6369 42.6916C34.5057 42.3496 33.51 41.662 32.7895 40.7253L26.8216 32.9672H19.2152L13.2453 40.1312C12.7149 40.7693 12.0504 41.2826 11.299 41.6345C10.5476 41.9864 9.72785 42.1684 8.89812 42.1673H8.72563C7.22532 42.1657 5.78691 41.569 4.726 40.5082C3.6651 39.4473 3.06834 38.0089 3.06667 36.5086V26.8338C3.06941 24.3946 4.03957 22.0561 5.76431 20.3313C7.48905 18.6065 9.82752 17.6363 12.2667 17.6336H33.7333C36.1725 17.6363 38.5109 18.6065 40.2357 20.3313C41.9604 22.0561 42.9306 24.3946 42.9333 26.8338V37.2752Z" fill="#D31E44"/>
<path d="M33.0455 22H36.1364V25.1429H33.0455V22ZM33.0455 29.8571H36.1364V33H33.0455V29.8571ZM29.1818 25.9286H32.2727V29.0714H29.1818V25.9286ZM36.9091 25.9286H40V29.0714H36.9091V25.9286ZM12.9545 22H9.86364V25.9286H6V29.0714H9.86364V33H12.9545V29.0714H16.8182V25.9286H12.9545V22Z" fill="#D31E44"/>
</svg>
