<svg width="46" height="46" viewBox="0 0 46 46" fill="none" xmlns="http://www.w3.org/2000/svg">
<g clip-path="url(#clip0_31_1125)">
<path fill-rule="evenodd" clip-rule="evenodd" d="M24.9166 24.9167C26.9499 24.9167 28.9 25.7244 30.3377 27.1622C31.7755 28.6 32.5833 30.55 32.5833 32.5833V36.4167C32.5833 36.925 32.3813 37.4125 32.0219 37.772C31.6624 38.1314 31.1749 38.3333 30.6666 38.3333C30.1583 38.3333 29.6707 38.1314 29.3113 37.772C28.9519 37.4125 28.7499 36.925 28.7499 36.4167V32.5833C28.7499 31.5667 28.3461 30.5916 27.6272 29.8728C26.9083 29.1539 25.9332 28.75 24.9166 28.75H11.4999C10.4833 28.75 9.50823 29.1539 8.78934 29.8728C8.07045 30.5916 7.66659 31.5667 7.66659 32.5833V36.4167C7.66659 36.925 7.46465 37.4125 7.10521 37.772C6.74576 38.1314 6.25825 38.3333 5.74992 38.3333C5.24159 38.3333 4.75408 38.1314 4.39463 37.772C4.03519 37.4125 3.83325 36.925 3.83325 36.4167V32.5833C3.83325 30.55 4.64099 28.6 6.07877 27.1622C7.51655 25.7244 9.46659 24.9167 11.4999 24.9167H24.9166ZM36.4166 24.9167C37.9416 24.9167 39.4041 25.5225 40.4824 26.6008C41.5608 27.6791 42.1666 29.1417 42.1666 30.6667V34.5C42.1666 35.0083 41.9647 35.4958 41.6052 35.8553C41.2458 36.2147 40.7583 36.4167 40.2499 36.4167C39.7416 36.4167 39.2541 36.2147 38.8946 35.8553C38.5352 35.4958 38.3333 35.0083 38.3333 34.5V30.6667C38.3333 30.1583 38.1313 29.6708 37.7719 29.3114C37.4124 28.9519 36.9249 28.75 36.4166 28.75H33.7026C33.0381 27.2323 31.993 25.9119 30.6685 24.9167H36.4166ZM18.2083 5.75C20.4957 5.75 22.6895 6.6587 24.307 8.2762C25.9245 9.8937 26.8333 12.0875 26.8333 14.375C26.8333 16.6625 25.9245 18.8563 24.307 20.4738C22.6895 22.0913 20.4957 23 18.2083 23C15.9208 23 13.727 22.0913 12.1095 20.4738C10.492 18.8563 9.58325 16.6625 9.58325 14.375C9.58325 12.0875 10.492 9.8937 12.1095 8.2762C13.727 6.6587 15.9208 5.75 18.2083 5.75ZM34.4999 11.5C36.0249 11.5 37.4874 12.1058 38.5658 13.1841C39.6441 14.2625 40.2499 15.725 40.2499 17.25C40.2499 18.775 39.6441 20.2375 38.5658 21.3159C37.4874 22.3942 36.0249 23 34.4999 23C32.9749 23 31.5124 22.3942 30.4341 21.3159C29.3557 20.2375 28.7499 18.775 28.7499 17.25C28.7499 15.725 29.3557 14.2625 30.4341 13.1841C31.5124 12.1058 32.9749 11.5 34.4999 11.5ZM18.2083 9.58333C16.9374 9.58333 15.7186 10.0882 14.82 10.9868C13.9214 11.8854 13.4166 13.1042 13.4166 14.375C13.4166 15.6458 13.9214 16.8646 14.82 17.7632C15.7186 18.6618 16.9374 19.1667 18.2083 19.1667C19.4791 19.1667 20.6979 18.6618 21.5965 17.7632C22.4951 16.8646 22.9999 15.6458 22.9999 14.375C22.9999 13.1042 22.4951 11.8854 21.5965 10.9868C20.6979 10.0882 19.4791 9.58333 18.2083 9.58333ZM34.4999 15.3333C33.9916 15.3333 33.5041 15.5353 33.1446 15.8947C32.7852 16.2542 32.5833 16.7417 32.5833 17.25C32.5833 17.7583 32.7852 18.2458 33.1446 18.6053C33.5041 18.9647 33.9916 19.1667 34.4999 19.1667C35.0082 19.1667 35.4958 18.9647 35.8552 18.6053C36.2147 18.2458 36.4166 17.7583 36.4166 17.25C36.4166 16.7417 36.2147 16.2542 35.8552 15.8947C35.4958 15.5353 35.0082 15.3333 34.4999 15.3333Z" fill="#D31E44"/>
</g>
<defs>
<clipPath id="clip0_31_1125">
<rect width="46" height="46" fill="white"/>
</clipPath>
</defs>
</svg>
