<svg width="46" height="46" viewBox="0 0 46 46" fill="none" xmlns="http://www.w3.org/2000/svg">
<path d="M7.66659 40.2497C6.61242 40.2497 5.71031 39.8746 4.96025 39.1246C4.20892 38.3733 3.83325 37.4705 3.83325 36.4163V15.333C3.83325 14.2788 4.20892 13.3767 4.96025 12.6267C5.71031 11.8753 6.61242 11.4997 7.66659 11.4997H15.3333V7.66634C15.3333 6.61217 15.7089 5.70942 16.4603 4.95809C17.2103 4.20804 18.1124 3.83301 19.1666 3.83301H26.8333C27.8874 3.83301 28.7902 4.20804 29.5415 4.95809C30.2916 5.70942 30.6666 6.61217 30.6666 7.66634V11.4997H38.3333C39.3874 11.4997 40.2902 11.8753 41.0415 12.6267C41.7916 13.3767 42.1666 14.2788 42.1666 15.333V36.4163C42.1666 37.4705 41.7916 38.3733 41.0415 39.1246C40.2902 39.8746 39.3874 40.2497 38.3333 40.2497H7.66659ZM7.66659 36.4163H38.3333V15.333H7.66659V36.4163ZM19.1666 11.4997H26.8333V7.66634H19.1666V11.4997Z" fill="#D31E44"/>
</svg>
