<svg width="100%" height="80" viewBox="0 0 215 80" fill="none" xmlns="http://www.w3.org/2000/svg">
    <rect width="215" height="80" fill="#D31E44" />
    <path
        d="M75.62 45L81.74 31H86.38L92.5 45H87.62L83.1 33.24H84.94L80.42 45H75.62ZM79.26 42.56L80.46 39.16H86.9L88.1 42.56H79.26ZM101.698 45.32C100.578 45.32 99.538 45.1467 98.578 44.8C97.6313 44.44 96.8046 43.9333 96.098 43.28C95.4046 42.6267 94.8646 41.8533 94.478 40.96C94.0913 40.0667 93.898 39.08 93.898 38C93.898 36.92 94.0913 35.9333 94.478 35.04C94.8646 34.1467 95.4046 33.3733 96.098 32.72C96.8046 32.0667 97.6313 31.5667 98.578 31.22C99.538 30.86 100.578 30.68 101.698 30.68C103.071 30.68 104.285 30.92 105.338 31.4C106.405 31.88 107.285 32.5733 107.978 33.48L104.998 36.14C104.585 35.62 104.125 35.22 103.618 34.94C103.125 34.6467 102.565 34.5 101.938 34.5C101.445 34.5 100.998 34.58 100.598 34.74C100.198 34.9 99.8513 35.1333 99.558 35.44C99.278 35.7467 99.058 36.12 98.898 36.56C98.738 36.9867 98.658 37.4667 98.658 38C98.658 38.5333 98.738 39.02 98.898 39.46C99.058 39.8867 99.278 40.2533 99.558 40.56C99.8513 40.8667 100.198 41.1 100.598 41.26C100.998 41.42 101.445 41.5 101.938 41.5C102.565 41.5 103.125 41.36 103.618 41.08C104.125 40.7867 104.585 40.38 104.998 39.86L107.978 42.52C107.285 43.4133 106.405 44.1067 105.338 44.6C104.285 45.08 103.071 45.32 101.698 45.32ZM115.765 45.32C114.592 45.32 113.459 45.1867 112.365 44.92C111.272 44.6533 110.372 44.3067 109.665 43.88L111.185 40.44C111.852 40.8267 112.592 41.14 113.405 41.38C114.232 41.6067 115.032 41.72 115.805 41.72C116.259 41.72 116.612 41.6933 116.865 41.64C117.132 41.5733 117.325 41.4867 117.445 41.38C117.565 41.26 117.625 41.12 117.625 40.96C117.625 40.7067 117.485 40.5067 117.205 40.36C116.925 40.2133 116.552 40.0933 116.085 40C115.632 39.8933 115.132 39.7867 114.585 39.68C114.039 39.56 113.485 39.4067 112.925 39.22C112.379 39.0333 111.872 38.7867 111.405 38.48C110.952 38.1733 110.585 37.7733 110.305 37.28C110.025 36.7733 109.885 36.1467 109.885 35.4C109.885 34.5333 110.125 33.7467 110.605 33.04C111.099 32.32 111.825 31.7467 112.785 31.32C113.759 30.8933 114.965 30.68 116.405 30.68C117.352 30.68 118.285 30.78 119.205 30.98C120.125 31.18 120.952 31.4867 121.685 31.9L120.265 35.32C119.572 34.9733 118.899 34.7133 118.245 34.54C117.605 34.3667 116.979 34.28 116.365 34.28C115.912 34.28 115.552 34.32 115.285 34.4C115.019 34.48 114.825 34.5867 114.705 34.72C114.599 34.8533 114.545 35 114.545 35.16C114.545 35.4 114.685 35.5933 114.965 35.74C115.245 35.8733 115.612 35.9867 116.065 36.08C116.532 36.1733 117.039 36.2733 117.585 36.38C118.145 36.4867 118.699 36.6333 119.245 36.82C119.792 37.0067 120.292 37.2533 120.745 37.56C121.212 37.8667 121.585 38.2667 121.865 38.76C122.145 39.2533 122.285 39.8667 122.285 40.6C122.285 41.4533 122.039 42.24 121.545 42.96C121.065 43.6667 120.345 44.24 119.385 44.68C118.425 45.1067 117.219 45.32 115.765 45.32ZM132.33 45.32C131.21 45.32 130.17 45.1467 129.21 44.8C128.263 44.44 127.437 43.9333 126.73 43.28C126.037 42.6267 125.497 41.8533 125.11 40.96C124.723 40.0667 124.53 39.08 124.53 38C124.53 36.92 124.723 35.9333 125.11 35.04C125.497 34.1467 126.037 33.3733 126.73 32.72C127.437 32.0667 128.263 31.5667 129.21 31.22C130.17 30.86 131.21 30.68 132.33 30.68C133.703 30.68 134.917 30.92 135.97 31.4C137.037 31.88 137.917 32.5733 138.61 33.48L135.63 36.14C135.217 35.62 134.757 35.22 134.25 34.94C133.757 34.6467 133.197 34.5 132.57 34.5C132.077 34.5 131.63 34.58 131.23 34.74C130.83 34.9 130.483 35.1333 130.19 35.44C129.91 35.7467 129.69 36.12 129.53 36.56C129.37 36.9867 129.29 37.4667 129.29 38C129.29 38.5333 129.37 39.02 129.53 39.46C129.69 39.8867 129.91 40.2533 130.19 40.56C130.483 40.8667 130.83 41.1 131.23 41.26C131.63 41.42 132.077 41.5 132.57 41.5C133.197 41.5 133.757 41.36 134.25 41.08C134.757 40.7867 135.217 40.38 135.63 39.86L138.61 42.52C137.917 43.4133 137.037 44.1067 135.97 44.6C134.917 45.08 133.703 45.32 132.33 45.32ZM139.657 45L145.777 31H150.417L156.537 45H151.657L147.137 33.24H148.977L144.457 45H139.657ZM143.297 42.56L144.497 39.16H150.937L152.137 42.56H143.297ZM158.691 45V31H165.431C166.737 31 167.864 31.2133 168.811 31.64C169.771 32.0667 170.511 32.68 171.031 33.48C171.551 34.2667 171.811 35.2 171.811 36.28C171.811 37.36 171.551 38.2933 171.031 39.08C170.511 39.8667 169.771 40.48 168.811 40.92C167.864 41.3467 166.737 41.56 165.431 41.56H161.311L163.411 39.54V45H158.691ZM163.411 40.06L161.311 37.92H165.131C165.784 37.92 166.264 37.7733 166.571 37.48C166.891 37.1867 167.051 36.7867 167.051 36.28C167.051 35.7733 166.891 35.3733 166.571 35.08C166.264 34.7867 165.784 34.64 165.131 34.64H161.311L163.411 32.5V40.06ZM179.079 36.2H185.319V39.6H179.079V36.2ZM179.399 41.44H186.399V45H174.759V31H186.139V34.56H179.399V41.44Z"
        fill="white" />
    <rect x="34" y="21" width="30" height="34" stroke="white" stroke-width="4" />
    <circle cx="49" cy="35" r="5" fill="white" />
    <rect x="47" y="38" width="4" height="9" fill="white" />
</svg>