<svg width="20" height="21" viewBox="0 0 20 21" fill="none" xmlns="http://www.w3.org/2000/svg">
<path d="M10 5.29688C9.38194 5.29687 8.77775 5.48015 8.26384 5.82353C7.74994 6.16691 7.3494 6.65497 7.11288 7.22599C6.87635 7.79701 6.81447 8.42534 6.93505 9.03153C7.05563 9.63772 7.35325 10.1945 7.79029 10.6316C8.22733 11.0686 8.78415 11.3663 9.39034 11.4868C9.99654 11.6074 10.6249 11.5455 11.1959 11.309C11.7669 11.0725 12.255 10.6719 12.5983 10.158C12.9417 9.64413 13.125 9.03994 13.125 8.42188C13.125 7.59307 12.7958 6.79822 12.2097 6.21217C11.6237 5.62612 10.8288 5.29688 10 5.29688Z" fill="white"/>
<path d="M10 1.54688C8.26942 1.54687 6.57769 2.06005 5.13876 3.02152C3.69983 3.98298 2.57832 5.34954 1.91606 6.9484C1.25379 8.54725 1.08051 10.3066 1.41813 12.0039C1.75575 13.7012 2.58911 15.2603 3.81282 16.4841C5.03653 17.7078 6.59563 18.5411 8.29296 18.8787C9.9903 19.2164 11.7496 19.0431 13.3485 18.3808C14.9473 17.7186 16.3139 16.597 17.2754 15.1581C18.2368 13.7192 18.75 12.0275 18.75 10.2969C18.7474 7.97704 17.8246 5.75298 16.1843 4.11261C14.5439 2.47224 12.3198 1.54952 10 1.54688ZM14.995 15.8756C14.9825 15.0558 14.6485 14.2737 14.0649 13.6979C13.4814 13.122 12.6949 12.7984 11.875 12.7969H8.125C7.30512 12.7984 6.51865 13.122 5.93506 13.6979C5.35147 14.2737 5.01746 15.0558 5.005 15.8756C3.87161 14.8636 3.07234 13.5312 2.71303 12.0548C2.35372 10.5784 2.45132 9.02771 2.9929 7.60804C3.53449 6.18836 4.49452 4.96667 5.74586 4.10473C6.99721 3.24279 8.48084 2.78127 10.0003 2.78127C11.5198 2.78127 13.0034 3.24279 14.2548 4.10473C15.5061 4.96667 16.4661 6.18836 17.0077 7.60804C17.5493 9.02771 17.6469 10.5784 17.2876 12.0548C16.9283 13.5312 16.129 14.8636 14.9956 15.8756H14.995Z" fill="white"/>
</svg>
